<svg xmlns="http://www.w3.org/2000/svg">
  <defs>
    <!-- Free icons from https://css.gg -->

    <!-- https://css.gg/block -->
    <symbol id="icon-block" viewBox="0 0 24 24">
      <path
        d="M8.46457 14.1213C8.07404 14.5118 8.07404 15.145 8.46457 15.5355C8.85509 15.926 9.48825 15.926 9.87878 15.5355L15.5356 9.87862C15.9262 9.4881 15.9262 8.85493 15.5356 8.46441C15.1451 8.07388 14.5119 8.07388 14.1214 8.46441L8.46457 14.1213Z"
        fill="currentColor"
      />
      <path
        fill-rule="evenodd"
        clip-rule="evenodd"
        d="M6.34315 17.6569C9.46734 20.781 14.5327 20.781 17.6569 17.6569C20.781 14.5327 20.781 9.46734 17.6569 6.34315C14.5327 3.21895 9.46734 3.21895 6.34315 6.34315C3.21895 9.46734 3.21895 14.5327 6.34315 17.6569ZM16.2426 16.2426C13.8995 18.5858 10.1005 18.5858 7.75736 16.2426C5.41421 13.8995 5.41421 10.1005 7.75736 7.75736C10.1005 5.41421 13.8995 5.41421 16.2426 7.75736C18.5858 10.1005 18.5858 13.8995 16.2426 16.2426Z"
        fill="currentColor"
      />
    </symbol>

    <!-- https://css.gg/close -->
    <symbol id="icon-close" viewBox="0 0 24 24">
      <path
        d="M6.2253 4.81108C5.83477 4.42056 5.20161 4.42056 4.81108 4.81108C4.42056 5.20161 4.42056 5.83477 4.81108 6.2253L10.5858 12L4.81114 17.7747C4.42062 18.1652 4.42062 18.7984 4.81114 19.1889C5.20167 19.5794 5.83483 19.5794 6.22535 19.1889L12 13.4142L17.7747 19.1889C18.1652 19.5794 18.7984 19.5794 19.1889 19.1889C19.5794 18.7984 19.5794 18.1652 19.1889 17.7747L13.4142 12L19.189 6.2253C19.5795 5.83477 19.5795 5.20161 19.189 4.81108C18.7985 4.42056 18.1653 4.42056 17.7748 4.81108L12 10.5858L6.2253 4.81108Z"
        fill="currentColor"
      />
    </symbol>

  </defs>
</svg>
